<svg width="24" height="24" viewBox="0 0 24 24" fill="none" xmlns="http://www.w3.org/2000/svg">
<path d="M11.9988 11.8972C10.8542 11.8972 9.91834 11.5337 9.19134 10.8067C8.46417 10.0796 8.10059 9.14365 8.10059 7.99899C8.10059 6.85432 8.46417 5.91807 9.19134 5.19024C9.91834 4.46224 10.8542 4.09824 11.9988 4.09824C13.1435 4.09824 14.0808 4.46224 14.8106 5.19024C15.5406 5.91807 15.9056 6.85432 15.9056 7.99899C15.9056 9.14365 15.5406 10.0796 14.8106 10.8067C14.0808 11.5337 13.1435 11.8972 11.9988 11.8972ZM3.85059 18.524V17.7157C3.85059 17.0572 4.01659 16.4907 4.34859 16.016C4.68042 15.5412 5.109 15.1806 5.63434 14.9342C6.759 14.4302 7.83975 14.0522 8.87659 13.8002C9.91325 13.5482 10.9539 13.4222 11.9986 13.4222C13.0508 13.4222 14.0907 13.5524 15.1183 13.8127C16.146 14.0731 17.2195 14.4485 18.3388 14.939C18.8868 15.1823 19.3267 15.5407 19.6583 16.014C19.9898 16.4873 20.1556 17.0546 20.1556 17.7157V18.524C20.1556 18.9922 19.9893 19.3931 19.6566 19.7267C19.3239 20.0604 18.9205 20.2272 18.4463 20.2272H5.55384C5.08134 20.2272 4.67934 20.0604 4.34784 19.7267C4.01634 19.3931 3.85059 18.9922 3.85059 18.524ZM5.55384 18.524H18.4463V17.7397C18.4463 17.4756 18.3672 17.2237 18.2088 16.9842C18.0505 16.7446 17.8547 16.5671 17.6213 16.4517C16.5705 15.9469 15.6084 15.6007 14.7351 15.413C13.8618 15.2253 12.9491 15.1315 11.9971 15.1315C11.0531 15.1315 10.1341 15.2253 9.24009 15.413C8.34609 15.6007 7.38484 15.9466 6.35634 16.4507C6.12134 16.5662 5.92884 16.7438 5.77884 16.9835C5.62884 17.2233 5.55384 17.4754 5.55384 17.7397V18.524ZM11.9988 10.194C12.6337 10.194 13.1587 9.98682 13.5738 9.57249C13.9888 9.15799 14.1963 8.63315 14.1963 7.99799C14.1963 7.36115 13.9892 6.8359 13.5748 6.42224C13.1607 6.00857 12.6362 5.80174 12.0013 5.80174C11.3665 5.80174 10.8415 6.00865 10.4263 6.42249C10.0113 6.83649 9.80384 7.36065 9.80384 7.99499C9.80384 8.63115 10.011 9.15665 10.4253 9.57149C10.8395 9.98649 11.364 10.194 11.9988 10.194Z" fill="black"/>
</svg>
