<svg width="17" height="17" viewBox="0 0 17 17" fill="none" xmlns="http://www.w3.org/2000/svg">
<path d="M8.14825 7.799C7.00358 7.799 6.06775 7.4355 5.34075 6.7085C4.61358 5.98133 4.25 5.04542 4.25 3.90075C4.25 2.75608 4.61358 1.81983 5.34075 1.092C6.06775 0.364 7.00358 0 8.14825 0C9.29292 0 10.2302 0.364 10.96 1.092C11.69 1.81983 12.055 2.75608 12.055 3.90075C12.055 5.04542 11.69 5.98133 10.96 6.7085C10.2302 7.4355 9.29292 7.799 8.14825 7.799ZM0 14.4258V13.6175C0 12.959 0.166 12.3924 0.498 11.9178C0.829833 11.4429 1.25842 11.0823 1.78375 10.836C2.90842 10.332 3.98917 9.954 5.026 9.702C6.06267 9.45 7.10333 9.324 8.148 9.324C9.20017 9.324 10.2401 9.45417 11.2677 9.7145C12.2954 9.97483 13.3689 10.3503 14.4882 10.8408C15.0362 11.0841 15.4761 11.4424 15.8077 11.9158C16.1392 12.3891 16.305 12.9563 16.305 13.6175V14.4258C16.305 14.8939 16.1387 15.2948 15.806 15.6285C15.4733 15.9622 15.0699 16.129 14.5957 16.129H1.70325C1.23075 16.129 0.82875 15.9622 0.49725 15.6285C0.16575 15.2948 0 14.8939 0 14.4258ZM1.70325 14.4258H14.5957V13.6415C14.5957 13.3773 14.5166 13.1255 14.3582 12.886C14.1999 12.6463 14.0041 12.4688 13.7707 12.3535C12.7199 11.8487 11.7578 11.5024 10.8845 11.3147C10.0112 11.1271 9.0985 11.0333 8.1465 11.0333C7.2025 11.0333 6.2835 11.1271 5.3895 11.3147C4.4955 11.5024 3.53425 11.8483 2.50575 12.3525C2.27075 12.468 2.07825 12.6456 1.92825 12.8853C1.77825 13.1251 1.70325 13.3772 1.70325 13.6415V14.4258ZM8.14825 6.09575C8.78308 6.09575 9.30808 5.88858 9.72325 5.47425C10.1382 5.05975 10.3457 4.53492 10.3457 3.89975C10.3457 3.26292 10.1386 2.73767 9.72425 2.324C9.31008 1.91033 8.78558 1.7035 8.15075 1.7035C7.51592 1.7035 6.99092 1.91042 6.57575 2.32425C6.16075 2.73825 5.95325 3.26242 5.95325 3.89675C5.95325 4.53292 6.16042 5.05842 6.57475 5.47325C6.98892 5.88825 7.51342 6.09575 8.14825 6.09575Z" fill="black"/>
</svg>
