<svg xmlns="http://www.w3.org/2000/svg" width="58" height="40" fill="none">
  <rect width="57" height="39" x=".5" y=".5" fill="#fff" rx="5.5"/>
  <rect width="57" height="39" x=".5" y=".5" stroke="#F9F7F6" rx="5.5"/>
  <path fill="#3C4043" d="M44.52 23.55h.028l2.363-5.931h1.66l-5.105 11.89H41.89l1.899-4.159-3.35-7.731h1.66l2.42 5.93Zm-7.992-6.2c1.13 0 2.022.308 2.677.914.654.607.977 1.454.977 2.523v5.092H38.72v-1.145h-.066c-.636.943-1.471 1.415-2.524 1.415-.892 0-1.652-.27-2.25-.809a2.57 2.57 0 0 1-.9-2.021c0-.857.322-1.53.957-2.041.636-.51 1.49-.76 2.553-.76.911 0 1.652.172 2.24.5v-.356c0-.53-.227-1.03-.626-1.377a2.204 2.204 0 0 0-1.471-.569c-.854 0-1.529.366-2.022 1.098l-1.348-.858c.722-1.068 1.813-1.607 3.265-1.607Zm-7.24-3.544a3.603 3.603 0 0 1 2.619 1.05 3.521 3.521 0 0 1 .17 4.929l-.17.174c-.712.683-1.585 1.03-2.62 1.03h-2.524v4.89h-1.528V13.806h4.053Zm7.44 7.962c-.617 0-1.139.155-1.556.453-.408.299-.617.674-.618 1.126 0 .404.19.78.503 1.012.342.27.76.414 1.187.404.645 0 1.262-.26 1.718-.723.503-.48.76-1.049.76-1.704-.475-.385-1.14-.578-1.994-.568Zm-9.965-2.263h2.563c.57.02 1.12-.21 1.509-.625a2.147 2.147 0 0 0-.047-2.995 2.069 2.069 0 0 0-1.462-.596h-2.563v4.216Z"/>
  <path fill="#4285F4" d="M21.488 19.93a8.69 8.69 0 0 0-.114-1.406H14.93v2.667h3.692a3.214 3.214 0 0 1-1.366 2.109v1.733h2.201c1.29-1.204 2.031-2.985 2.031-5.103Z"/>
  <path fill="#34A853" d="M14.93 26.708c1.842 0 3.398-.616 4.528-1.675L17.256 23.3c-.617.423-1.405.664-2.325.664-1.784 0-3.293-1.223-3.834-2.86H8.829v1.791a6.815 6.815 0 0 0 6.102 3.813Z"/>
  <path fill="#FBBC04" d="M11.097 21.105a4.24 4.24 0 0 1 0-2.658v-1.781H8.828a6.962 6.962 0 0 0 0 6.22l2.269-1.781Z"/>
  <path fill="#EA4335" d="M14.93 15.588a3.649 3.649 0 0 1 2.62 1.04l1.955-1.984a6.543 6.543 0 0 0-4.574-1.8c-2.581 0-4.945 1.482-6.102 3.822l2.268 1.79c.54-1.645 2.05-2.868 3.834-2.868Z"/>
</svg>
