<svg xmlns="http://www.w3.org/2000/svg" width="58" height="40" fill="none">
  <rect width="57" height="39" x=".5" y=".5" fill="#fff" rx="5.5"/>
  <rect width="57" height="39" x=".5" y=".5" stroke="#F9F7F6" rx="5.5"/>
  <path fill="#ED0006" d="M35.962 8.383c6.241 0 11.302 5 11.302 11.167s-5.06 11.166-11.302 11.166a11.333 11.333 0 0 1-7.331-2.672 11.333 11.333 0 0 1-7.33 2.672C15.06 30.716 10 25.717 10 19.55c0-6.167 5.06-11.167 11.3-11.167 2.799 0 5.357 1.007 7.33 2.671a11.334 11.334 0 0 1 7.332-2.67Z"/>
  <path fill="#F9A000" d="M35.962 8.383c6.241 0 11.301 5 11.301 11.167s-5.06 11.166-11.301 11.166a11.334 11.334 0 0 1-7.33-2.67c2.428-2.049 3.97-5.093 3.97-8.496 0-3.402-1.541-6.448-3.97-8.496a11.334 11.334 0 0 1 7.33-2.67Z"/>
  <path fill="#FF5E00" d="M28.63 11.054c2.43 2.048 3.972 5.093 3.972 8.496 0 3.402-1.542 6.447-3.971 8.495-2.429-2.048-3.97-5.093-3.97-8.495 0-3.402 1.541-6.448 3.97-8.496Z"/>
</svg>
