<svg xmlns="http://www.w3.org/2000/svg" width="58" height="40" fill="none">
  <rect width="57" height="39" x=".5" y=".5" fill="#FEB4C7" rx="5.5"/>
  <rect width="57" height="39" x=".5" y=".5" stroke="#F9F7F6" rx="5.5"/>
  <path fill="#17120F" d="M22.734 18.075c.765 0 1.474.249 2.061.673v-.47h2.08v7.352h-2.08v-.47a3.507 3.507 0 0 1-2.061.673c-2.024 0-3.666-1.736-3.666-3.879 0-2.142 1.642-3.879 3.666-3.879Zm21.941 0c.765 0 1.474.249 2.062.673v-.47h2.08v7.352h-2.08v-.47a3.508 3.508 0 0 1-2.062.673c-2.024 0-3.665-1.736-3.665-3.879 0-2.142 1.641-3.879 3.665-3.879Zm6.35 4.948c.72 0 1.305.618 1.305 1.38 0 .763-.584 1.382-1.305 1.382-.72 0-1.306-.619-1.306-1.382 0-.762.585-1.38 1.306-1.38ZM8.782 15v10.633H6.476V15h2.306Zm5.757 0c0 2.302-.848 4.444-2.359 6.035l3.187 4.598H12.52l-3.463-4.997.894-.708c1.482-1.175 2.332-2.971 2.332-4.928h2.256Zm3.677 10.63H16.04V15.002h2.177V25.63Zm11.876-6.395c.417-.574 1.195-.957 2.04-.957v2.14l-.026-.001c-.823 0-2.009.622-2.009 1.78v3.433h-2.134v-7.352h2.13v.957Zm7.222-1.155c1.676 0 2.961 1.164 2.961 2.875v4.675h-2.077V21.75c0-1.072-.526-1.65-1.44-1.65-.852 0-1.561.548-1.561 1.666v3.863H33.1v-7.352h2.072v.828c.525-.753 1.311-1.026 2.142-1.026Zm-14.41 1.983c-1.04 0-1.884.847-1.884 1.891 0 1.045.844 1.892 1.885 1.892 1.04 0 1.884-.847 1.884-1.892a1.888 1.888 0 0 0-1.884-1.892Zm21.942 0c-1.04 0-1.884.847-1.884 1.891 0 1.045.843 1.892 1.884 1.892s1.885-.847 1.885-1.892a1.888 1.888 0 0 0-1.885-1.892Z"/>
</svg>
