<svg xmlns="http://www.w3.org/2000/svg" width="58" height="40" fill="none">
  <rect width="57" height="39" x=".5" y=".5" fill="#1F72CD" rx="5.5"/>
  <rect width="57" height="39" x=".5" y=".5" stroke="#F9F7F6" rx="5.5"/>
  <path fill="#fff" fill-rule="evenodd" d="M10.159 14.166 4.857 26.244h6.347l.787-1.925h1.799l.787 1.925h6.986v-1.47l.622 1.47H25.8l.623-1.5v1.5h14.53l1.766-1.875 1.654 1.875 7.463.016-5.318-6.02 5.318-6.073h-7.347l-1.72 1.84-1.602-1.84H25.36l-1.357 3.117-1.39-3.117H16.28v1.42l-.705-1.42h-5.416Zm1.228 1.716h3.094l3.517 8.19v-8.19h3.389l2.716 5.872 2.503-5.872h3.373v8.666h-2.052l-.017-6.79-2.991 6.79h-1.836l-3.008-6.79v6.79h-4.222l-.8-1.943H10.73l-.798 1.942H7.669l3.718-8.665Zm28.813 0h-8.344v8.661h8.215l2.647-2.87 2.552 2.87h2.668l-3.878-4.305 3.878-4.356h-2.552l-2.634 2.837-2.552-2.837Zm-27.308 1.466-1.424 3.461h2.847l-1.423-3.461Zm21.024 1.91v-1.584h5.207l2.271 2.53-2.372 2.545h-5.105v-1.727h4.551v-1.764h-4.552Z" clip-rule="evenodd"/>
</svg>
