<svg xmlns="http://www.w3.org/2000/svg" width="58" height="40" fill="none">
  <rect width="57" height="39" x=".5" y=".5" fill="#fff" rx="5.5"/>
  <rect width="57" height="39" x=".5" y=".5" stroke="#F9F7F6" rx="5.5"/>
  <path fill="#28356A" fill-rule="evenodd" d="m24.357 30.747.368-2.415-.82-.02h-3.913l2.72-17.823a.238.238 0 0 1 .076-.14.218.218 0 0 1 .145-.055h6.598c2.19 0 3.702.471 4.491 1.401.37.437.606.893.72 1.394.12.527.122 1.156.005 1.923l-.008.056v.491l.37.217c.311.17.559.366.749.59.316.373.52.847.607 1.41.09.577.06 1.265-.086 2.044-.169.896-.442 1.676-.81 2.314a4.703 4.703 0 0 1-1.284 1.454c-.49.36-1.071.632-1.73.807-.637.171-1.363.258-2.16.258h-.514c-.367 0-.724.136-1.004.381a1.62 1.62 0 0 0-.523.966l-.039.217-.65 4.258-.03.156c-.007.05-.02.074-.04.09a.106.106 0 0 1-.067.026h-3.171Z" clip-rule="evenodd"/>
  <path fill="#298FC2" fill-rule="evenodd" d="M35.46 15.124c-.02.13-.043.263-.068.4-.87 4.618-3.847 6.213-7.65 6.213h-1.935a.95.95 0 0 0-.93.823l-1.271 8.338a.507.507 0 0 0 .488.592h3.434a.835.835 0 0 0 .816-.72l.034-.18.646-4.24.042-.233a.835.835 0 0 1 .816-.72h.513c3.327 0 5.931-1.397 6.692-5.436.318-1.688.154-3.097-.688-4.088a3.295 3.295 0 0 0-.94-.749Z" clip-rule="evenodd"/>
  <path fill="#22284F" fill-rule="evenodd" d="M34.549 14.75a6.616 6.616 0 0 0-.847-.195 10.417 10.417 0 0 0-1.706-.129h-5.172a.798.798 0 0 0-.357.084.85.85 0 0 0-.458.637l-1.1 7.203-.032.21a.95.95 0 0 1 .93-.823h1.935c3.802 0 6.78-1.596 7.65-6.213.025-.137.047-.27.067-.4a4.547 4.547 0 0 0-.91-.375Z" clip-rule="evenodd"/>
  <path fill="#28356A" fill-rule="evenodd" d="M26.01 15.148a.847.847 0 0 1 .458-.637.798.798 0 0 1 .356-.084h5.172c.613 0 1.185.042 1.707.129a6.688 6.688 0 0 1 1.042.257c.256.087.495.191.715.311.259-1.706-.002-2.868-.895-3.92-.984-1.159-2.76-1.654-5.033-1.654h-6.599a.953.953 0 0 0-.932.824L19.253 28.38a.58.58 0 0 0 .56.677h4.073l2.123-13.91Z" clip-rule="evenodd"/>
</svg>
