<svg xmlns="http://www.w3.org/2000/svg" width="58" height="40" fill="none">
  <rect width="57" height="39" x=".5" y=".5" fill="#5A31F4" rx="5.5"/>
  <rect width="57" height="39" x=".5" y=".5" stroke="#F9F7F6" rx="5.5"/>
  <path fill="#fff" d="M32.117 18.29c0 2.493-1.748 4.273-4.191 4.273h-2.302a.192.192 0 0 0-.193.194v3.277a.194.194 0 0 1-.193.194h-1.61a.195.195 0 0 1-.194-.193V14.21a.192.192 0 0 1 .193-.194h4.309c2.433-.003 4.18 1.777 4.18 4.275Zm-2.009 0c0-1.434-.977-2.481-2.303-2.481h-2.18a.194.194 0 0 0-.18.12.19.19 0 0 0-.014.073v4.564a.193.193 0 0 0 .193.193h2.18c1.327.01 2.304-1.04 2.304-2.47Zm2.486 5.67a2.297 2.297 0 0 1 .96-1.97c.63-.474 1.611-.718 3.053-.768l1.536-.055v-.453c0-.908-.609-1.292-1.586-1.292-.978 0-1.598.346-1.74.913a.188.188 0 0 1-.185.135h-1.517a.189.189 0 0 1-.188-.138.189.189 0 0 1-.005-.082c.225-1.343 1.342-2.364 3.704-2.364 2.513 0 3.42 1.17 3.42 3.405v4.743a.195.195 0 0 1-.196.194h-1.53c-.05 0-.1-.02-.136-.056a.194.194 0 0 1-.056-.137v-.355a.144.144 0 0 0-.176-.144.145.145 0 0 0-.075.042c-.459.5-1.2.86-2.386.86-1.745 0-2.897-.908-2.897-2.479Zm5.549-1.029v-.368l-1.989.105c-1.048.053-1.657.489-1.657 1.222 0 .663.559 1.03 1.535 1.03 1.327 0 2.111-.716 2.111-1.989Zm3.44 6.881v-1.374a.197.197 0 0 1 .233-.191c.234.044.473.066.712.067a1.836 1.836 0 0 0 1.85-1.31l.099-.317a.204.204 0 0 0 0-.131l-3.187-8.184a.197.197 0 0 1 .182-.268h1.545a.197.197 0 0 1 .181.127l2.164 5.771a.196.196 0 0 0 .371 0l1.88-5.755a.197.197 0 0 1 .187-.135h1.598a.198.198 0 0 1 .184.269l-3.408 9.088c-.785 2.112-2.13 2.652-3.611 2.652a2.879 2.879 0 0 1-.834-.1.199.199 0 0 1-.147-.209ZM13.084 13.334a7.935 7.935 0 0 0-5.473 2.135.346.346 0 0 0-.043.463l.919 1.255a.352.352 0 0 0 .536.042 5.678 5.678 0 0 1 4.068-1.662c3.15 0 4.795 2.37 4.795 4.712 0 2.545-1.729 4.335-4.213 4.37-1.92 0-3.366-1.272-3.366-2.953a2.87 2.87 0 0 1 1.061-2.214.347.347 0 0 0 .048-.483l-.966-1.22a.352.352 0 0 0-.501-.051 5.102 5.102 0 0 0-1.901 3.968c0 2.893 2.459 5.163 5.609 5.182h.042c3.74-.049 6.444-2.818 6.444-6.604 0-3.362-2.476-6.94-7.059-6.94Z"/>
</svg>
