<svg width="17" height="21" viewBox="0 0 17 21" fill="none" xmlns="http://www.w3.org/2000/svg">
<path d="M1.70325 20.305C1.24325 20.305 0.844416 20.1361 0.50675 19.7983C0.168916 19.4606 0 19.0617 0 18.6017V5.781C0 5.31933 0.168916 4.91908 0.50675 4.58025C0.844416 4.24125 1.24325 4.07175 1.70325 4.07175H4.29775V3.82175C4.30575 2.75192 4.68192 1.8475 5.42625 1.1085C6.17042 0.369499 7.07783 0 8.1485 0C9.21917 0 10.1269 0.369499 10.8717 1.1085C11.6167 1.8475 11.9932 2.75192 12.0012 3.82175V4.07175H14.5957C15.0574 4.07175 15.4577 4.24125 15.7965 4.58025C16.1355 4.91908 16.305 5.31933 16.305 5.781V18.6017C16.305 19.0617 16.1355 19.4606 15.7965 19.7983C15.4577 20.1361 15.0574 20.305 14.5957 20.305H1.70325ZM1.70325 18.6017H14.5957V5.781H12.0012V7.9295C12.0012 8.16983 11.9189 8.37183 11.7542 8.5355C11.5897 8.69917 11.3867 8.781 11.145 8.781C10.9035 8.781 10.7019 8.69917 10.5402 8.5355C10.3786 8.37183 10.2977 8.16983 10.2977 7.9295V5.781H6.00125V7.9295C6.00125 8.16983 5.91892 8.37183 5.75425 8.5355C5.58975 8.69917 5.38667 8.781 5.145 8.781C4.9035 8.781 4.70192 8.69917 4.54025 8.5355C4.37858 8.37183 4.29775 8.16983 4.29775 7.9295V5.781H1.70325V18.6017ZM6.007 4.07175H10.292V3.82175C10.284 3.22825 10.0741 2.72783 9.66225 2.3205C9.25042 1.913 8.746 1.70925 8.149 1.70925C7.55183 1.70925 7.04758 1.913 6.63625 2.3205C6.22475 2.72783 6.015 3.22825 6.007 3.82175V4.07175Z" fill="black"/>
</svg>
