<svg width="24" height="24" viewBox="0 0 24 24" fill="none" xmlns="http://www.w3.org/2000/svg">
<path d="M5.55384 22.1495C5.09384 22.1495 4.695 21.9806 4.35734 21.6428C4.0195 21.3051 3.85059 20.9063 3.85059 20.4463V7.62551C3.85059 7.16385 4.0195 6.7636 4.35734 6.42476C4.695 6.08576 5.09384 5.91626 5.55384 5.91626H8.14834V5.66626C8.15634 4.59643 8.5325 3.69201 9.27684 2.95301C10.021 2.21401 10.9284 1.84451 11.9991 1.84451C13.0698 1.84451 13.9775 2.21401 14.7223 2.95301C15.4673 3.69201 15.8438 4.59643 15.8518 5.66626V5.91626H18.4463C18.908 5.91626 19.3083 6.08576 19.6471 6.42476C19.9861 6.7636 20.1556 7.16385 20.1556 7.62551V20.4463C20.1556 20.9063 19.9861 21.3051 19.6471 21.6428C19.3083 21.9806 18.908 22.1495 18.4463 22.1495H5.55384ZM5.55384 20.4463H18.4463V7.62551H15.8518V9.77401C15.8518 10.0143 15.7695 10.2163 15.6048 10.38C15.4403 10.5437 15.2373 10.6255 14.9956 10.6255C14.7541 10.6255 14.5525 10.5437 14.3908 10.38C14.2292 10.2163 14.1483 10.0143 14.1483 9.77401V7.62551H9.85184V9.77401C9.85184 10.0143 9.7695 10.2163 9.60484 10.38C9.44034 10.5437 9.23725 10.6255 8.99559 10.6255C8.75409 10.6255 8.5525 10.5437 8.39084 10.38C8.22917 10.2163 8.14834 10.0143 8.14834 9.77401V7.62551H5.55384V20.4463ZM9.85758 5.91626H14.1426V5.66626C14.1346 5.07276 13.9247 4.57235 13.5128 4.16501C13.101 3.75751 12.5966 3.55376 11.9996 3.55376C11.4024 3.55376 10.8982 3.75751 10.4868 4.16501C10.0753 4.57235 9.86559 5.07276 9.85758 5.66626V5.91626Z" fill="black"/>
</svg>
