<svg width="24" height="24" viewBox="0 0 24 24" fill="none" xmlns="http://www.w3.org/2000/svg">
<path d="M12.0117 2.34473C13.3516 2.34477 14.6027 2.59809 15.7695 3.10254C16.9462 3.61134 17.9659 4.30004 18.833 5.16699C19.7001 6.03378 20.3887 7.05443 20.8975 8.2334C21.4022 9.40259 21.6552 10.6543 21.6553 11.9932C21.6553 13.3319 21.402 14.5814 20.8975 15.7461C20.3884 16.9214 19.6994 17.9438 18.8311 18.8164C17.9636 19.6881 16.9427 20.3794 15.7646 20.8896C14.5963 21.3955 13.3456 21.6494 12.0078 21.6494C10.6694 21.6494 9.42003 21.3966 8.25488 20.8936C7.08054 20.3865 6.05674 19.6954 5.18066 18.8193C4.3047 17.9433 3.61344 16.9191 3.10645 15.7441C2.60352 14.5785 2.35059 13.3281 2.35059 11.9883C2.35061 10.6486 2.60338 9.39792 3.10645 8.23145C3.55002 7.20308 4.13437 6.29415 4.85938 5.50195L5.17871 5.16992C6.05427 4.30133 7.07845 3.61261 8.25488 3.10352C9.42089 2.59878 10.6716 2.34473 12.0117 2.34473ZM11.9971 3.05371C9.52988 3.05371 7.41172 3.9245 5.6709 5.65527C3.92864 7.38755 3.05378 9.51343 3.05371 12.0029C3.05371 14.4709 3.92916 16.5895 5.66895 18.3301C7.40959 20.0711 9.53397 20.9463 12.0127 20.9463C14.4867 20.9463 16.606 20.0718 18.3408 18.3311C20.0753 16.5903 20.9463 14.4654 20.9463 11.9873C20.9462 9.51441 20.0762 7.39604 18.3447 5.66113C16.6122 3.92526 14.4861 3.05371 11.9971 3.05371ZM12.0723 11.5C12.1523 11.5001 12.209 11.5177 12.2568 11.5508L12.3027 11.5889C12.361 11.6469 12.3906 11.7118 12.3906 11.8164V16.25C12.3906 16.3566 12.3606 16.422 12.3037 16.4795C12.2483 16.5354 12.1848 16.5664 12.0781 16.5664C11.9981 16.5664 11.9414 16.5486 11.8936 16.5156L11.8477 16.4775C11.7893 16.4195 11.7598 16.3546 11.7598 16.25V11.8164C11.7598 11.7098 11.7898 11.6444 11.8467 11.5869C11.9021 11.531 11.9656 11.5 12.0723 11.5ZM12.001 7.91016C12.1315 7.91023 12.2187 7.94991 12.2959 8.02832C12.3708 8.10449 12.415 8.19934 12.415 8.35059C12.415 8.44168 12.3946 8.51001 12.3525 8.56934L12.3027 8.62598C12.2268 8.69967 12.1373 8.74023 12 8.74023C11.8623 8.74022 11.7723 8.69978 11.6963 8.62598C11.6224 8.55417 11.585 8.47293 11.585 8.34766C11.585 8.19789 11.6287 8.10291 11.7031 8.02637C11.7761 7.95146 11.8631 7.91016 12.001 7.91016Z" fill="black" stroke="black"/>
</svg>
