<svg width="21" height="21" viewBox="0 0 21 21" fill="none" xmlns="http://www.w3.org/2000/svg">
<path d="M10.1611 0.5C11.501 0.500048 12.7521 0.753361 13.9189 1.25781C15.0956 1.76662 16.1153 2.45531 16.9824 3.32227C17.8495 4.18905 18.5381 5.2097 19.0469 6.38867C19.5516 7.55787 19.8046 8.80954 19.8047 10.1484C19.8047 11.4872 19.5515 12.7367 19.0469 13.9014C18.5379 15.0767 17.8488 16.0991 16.9805 16.9717C16.113 17.8434 15.0922 18.5346 13.9141 19.0449C12.7457 19.5508 11.4951 19.8047 10.1572 19.8047C8.81881 19.8047 7.56945 19.5519 6.4043 19.0488C5.22996 18.5418 4.20616 17.8507 3.33008 16.9746C2.45412 16.0986 1.76285 15.0743 1.25586 13.8994C0.752939 12.7337 0.5 11.4834 0.5 10.1436C0.500024 8.80382 0.752798 7.55319 1.25586 6.38672C1.69943 5.35835 2.28378 4.44942 3.00879 3.65723L3.32812 3.3252C4.20369 2.4566 5.22786 1.76789 6.4043 1.25879C7.5703 0.754058 8.82105 0.5 10.1611 0.5ZM10.1465 1.20898C7.67929 1.20899 5.56113 2.07977 3.82031 3.81055C2.07805 5.54282 1.20319 7.6687 1.20312 10.1582C1.20312 12.6262 2.07857 14.7448 3.81836 16.4854C5.559 18.2263 7.68339 19.1016 10.1621 19.1016C12.6361 19.1015 14.7554 18.2271 16.4902 16.4863C18.2247 14.7455 19.0957 12.6207 19.0957 10.1426C19.0956 7.66968 18.2256 5.55131 16.4941 3.81641C14.7616 2.08054 12.6356 1.20898 10.1465 1.20898ZM10.2217 9.65527C10.3017 9.65533 10.3584 9.67298 10.4062 9.70605L10.4521 9.74414C10.5104 9.8022 10.54 9.86707 10.54 9.97168V14.4053C10.54 14.5119 10.51 14.5773 10.4531 14.6348C10.3977 14.6907 10.3342 14.7217 10.2275 14.7217C10.1475 14.7216 10.0908 14.7039 10.043 14.6709L9.99707 14.6328C9.93876 14.5747 9.90918 14.5099 9.90918 14.4053V9.97168C9.90918 9.86503 9.93924 9.7997 9.99609 9.74219C10.0515 9.68626 10.115 9.65527 10.2217 9.65527ZM10.1504 6.06543C10.2809 6.06551 10.3681 6.10519 10.4453 6.18359C10.5202 6.25977 10.5645 6.35462 10.5645 6.50586C10.5644 6.59695 10.544 6.66528 10.502 6.72461L10.4521 6.78125C10.3762 6.85494 10.2868 6.89551 10.1494 6.89551C10.0117 6.89549 9.92167 6.85505 9.8457 6.78125C9.77185 6.70944 9.73446 6.6282 9.73438 6.50293C9.73438 6.35316 9.77816 6.25819 9.85254 6.18164C9.92555 6.10674 10.0125 6.06543 10.1504 6.06543Z" fill="black" stroke="black"/>
</svg>
