<svg width="20" height="19" viewBox="0 0 20 19" fill="none" xmlns="http://www.w3.org/2000/svg">
<path d="M1.75132 16.3692V4.84242L0.080069 1.23717C-0.0150977 1.02584 -0.025431 0.807258 0.049069 0.581425C0.123736 0.355425 0.268736 0.194841 0.484069 0.0996744C0.709402 -0.0163256 0.938819 -0.0310761 1.17232 0.0554239C1.40565 0.141924 1.57207 0.29959 1.67157 0.528423L3.58707 4.84242H16.0481L17.9551 0.522424C18.0601 0.30009 18.2242 0.146007 18.4473 0.0601739C18.6703 -0.0254927 18.8957 -0.0123256 19.1236 0.0996744C19.3339 0.195841 19.4808 0.360841 19.5643 0.594674C19.6477 0.828341 19.6417 1.05084 19.5466 1.26217L17.8813 4.84242V16.3692C17.8813 16.8417 17.715 17.2437 17.3823 17.5752C17.0497 17.9067 16.6462 18.0724 16.1721 18.0724H3.45457C2.98207 18.0724 2.58007 17.9067 2.24857 17.5752C1.91707 17.2437 1.75132 16.8417 1.75132 16.3692ZM7.70082 10.5337H11.9508C12.1768 10.5337 12.3643 10.4588 12.5133 10.3092C12.6622 10.1593 12.7366 9.97076 12.7366 9.74342C12.7366 9.51626 12.6622 9.32926 12.5133 9.18242C12.3643 9.03559 12.1768 8.96217 11.9508 8.96217H7.70082C7.47482 8.96217 7.28732 9.03701 7.13832 9.18667C6.98949 9.33651 6.91507 9.52509 6.91507 9.75242C6.91507 9.97959 6.98949 10.1666 7.13832 10.3134C7.28732 10.4603 7.47482 10.5337 7.70082 10.5337ZM3.45457 16.3692H16.1721V6.55167H3.45457V16.3692Z" fill="black"/>
</svg>
