<svg width="24" height="24" viewBox="0 0 24 24" fill="none" xmlns="http://www.w3.org/2000/svg">
<path d="M3.95054 18.4462V6.91945L2.27929 3.3142C2.18412 3.10287 2.17379 2.88428 2.24829 2.65845C2.32295 2.43245 2.46795 2.27187 2.68329 2.1767C2.90862 2.0607 3.13804 2.04595 3.37154 2.13245C3.60487 2.21895 3.77129 2.37662 3.87079 2.60545L5.78629 6.91945H18.2473L20.1543 2.59945C20.2593 2.37712 20.4234 2.22303 20.6465 2.1372C20.8695 2.05153 21.095 2.0647 21.3228 2.1767C21.5331 2.27287 21.68 2.43787 21.7635 2.6717C21.8469 2.90537 21.841 3.12787 21.7458 3.3392L20.0805 6.91945V18.4462C20.0805 18.9187 19.9142 19.3207 19.5815 19.6522C19.2489 19.9837 18.8455 20.1495 18.3713 20.1495H5.65379C5.18129 20.1495 4.77929 19.9837 4.44779 19.6522C4.11629 19.3207 3.95054 18.9187 3.95054 18.4462ZM9.90004 12.6107H14.15C14.376 12.6107 14.5635 12.5359 14.7125 12.3862C14.8614 12.2364 14.9358 12.0478 14.9358 11.8205C14.9358 11.5933 14.8614 11.4063 14.7125 11.2595C14.5635 11.1126 14.376 11.0392 14.15 11.0392H9.90004C9.67404 11.0392 9.48654 11.114 9.33754 11.2637C9.1887 11.4135 9.11429 11.6021 9.11429 11.8295C9.11429 12.0566 9.1887 12.2436 9.33754 12.3905C9.48654 12.5373 9.67404 12.6107 9.90004 12.6107ZM5.65379 18.4462H18.3713V8.6287H5.65379V18.4462Z" fill="black"/>
</svg>
