<svg width="24" height="24" viewBox="0 0 24 24" fill="none" xmlns="http://www.w3.org/2000/svg">
<path d="M11.3136 12.8037H15.0301C15.2551 12.8037 15.4453 12.7251 15.6006 12.5677C15.7561 12.4104 15.8338 12.2193 15.8338 11.9945C15.8338 11.7695 15.7561 11.5811 15.6006 11.4295C15.4453 11.278 15.2551 11.2022 15.0301 11.2022H11.3136L12.5608 9.94898C12.7188 9.78598 12.7988 9.5979 12.8008 9.38473C12.8028 9.17157 12.7248 8.98573 12.5668 8.82723C12.4038 8.66923 12.2125 8.59023 11.9928 8.59023C11.773 8.59023 11.5821 8.66923 11.4201 8.82723L8.82509 11.3972C8.65509 11.5701 8.57009 11.7717 8.57009 12.0022C8.57009 12.2326 8.65509 12.4327 8.82509 12.6027L11.4201 15.1917C11.5821 15.3537 11.7733 15.4306 11.9936 15.4222C12.2139 15.4139 12.405 15.3287 12.5668 15.1667C12.7288 15.0089 12.8088 14.8188 12.8068 14.5965C12.8048 14.3741 12.7228 14.182 12.5608 14.02L11.3136 12.8037ZM4.55384 21.1495C4.0855 21.1495 3.6845 20.9827 3.35084 20.6492C3.01734 20.3156 2.85059 19.9146 2.85059 19.4462V4.55373C2.85059 4.08373 3.01734 3.6814 3.35084 3.34673C3.6845 3.0119 4.0855 2.84448 4.55384 2.84448H9.52934C9.63667 2.26115 9.92134 1.78198 10.3833 1.40698C10.8452 1.03198 11.3841 0.844482 12.0001 0.844482C12.6161 0.844482 13.155 1.03198 13.6168 1.40698C14.0788 1.78198 14.3635 2.26115 14.4708 2.84448H19.4463C19.9163 2.84448 20.3187 3.0119 20.6533 3.34673C20.9882 3.6814 21.1556 4.08373 21.1556 4.55373V19.4462C21.1556 19.9146 20.9882 20.3156 20.6533 20.6492C20.3187 20.9827 19.9163 21.1495 19.4463 21.1495H4.55384ZM4.55384 19.4462H19.4463V4.55373H4.55384V19.4462ZM12.0001 4.11073C12.2473 4.11073 12.4608 4.02073 12.6408 3.84073C12.8208 3.66073 12.9108 3.44715 12.9108 3.19998C12.9108 2.95282 12.8208 2.73923 12.6408 2.55923C12.4608 2.37923 12.2473 2.28923 12.0001 2.28923C11.7529 2.28923 11.5393 2.37923 11.3593 2.55923C11.1793 2.73923 11.0893 2.95282 11.0893 3.19998C11.0893 3.44715 11.1793 3.66073 11.3593 3.84073C11.5393 4.02073 11.7529 4.11073 12.0001 4.11073Z" fill="black"/>
</svg>
