<svg width="19" height="21" viewBox="0 0 19 21" fill="none" xmlns="http://www.w3.org/2000/svg">
<path d="M8.463 11.9592H12.1795C12.4045 11.9592 12.5947 11.8806 12.75 11.7232C12.9055 11.5659 12.9832 11.3748 12.9832 11.15C12.9832 10.925 12.9055 10.7367 12.75 10.585C12.5947 10.4335 12.4045 10.3577 12.1795 10.3577H8.463L9.71025 9.1045C9.86825 8.9415 9.94825 8.75342 9.95025 8.54025C9.95225 8.32708 9.87425 8.14125 9.71625 7.98275C9.55325 7.82475 9.36192 7.74575 9.14225 7.74575C8.92242 7.74575 8.7315 7.82475 8.5695 7.98275L5.9745 10.5527C5.8045 10.7256 5.7195 10.9272 5.7195 11.1577C5.7195 11.3881 5.8045 11.5882 5.9745 11.7582L8.5695 14.3473C8.7315 14.5093 8.92267 14.5861 9.143 14.5778C9.36333 14.5694 9.55442 14.4843 9.71625 14.3223C9.87825 14.1644 9.95825 13.9743 9.95625 13.752C9.95425 13.5297 9.87225 13.3375 9.71025 13.1755L8.463 11.9592ZM1.70325 20.305C1.23492 20.305 0.833917 20.1382 0.50025 19.8047C0.16675 19.4711 0 19.0701 0 18.6017V3.70925C0 3.23925 0.16675 2.83692 0.50025 2.50225C0.833917 2.16742 1.23492 2 1.70325 2H6.67875C6.78608 1.41667 7.07075 0.9375 7.53275 0.5625C7.99458 0.1875 8.5335 0 9.1495 0C9.7655 0 10.3044 0.1875 10.7662 0.5625C11.2282 0.9375 11.5129 1.41667 11.6203 2H16.5957C17.0657 2 17.4681 2.16742 17.8027 2.50225C18.1376 2.83692 18.305 3.23925 18.305 3.70925V18.6017C18.305 19.0701 18.1376 19.4711 17.8027 19.8047C17.4681 20.1382 17.0657 20.305 16.5957 20.305H1.70325ZM1.70325 18.6017H16.5957V3.70925H1.70325V18.6017ZM9.1495 3.26625C9.39667 3.26625 9.61025 3.17625 9.79025 2.99625C9.97025 2.81625 10.0603 2.60267 10.0603 2.3555C10.0603 2.10833 9.97025 1.89475 9.79025 1.71475C9.61025 1.53475 9.39667 1.44475 9.1495 1.44475C8.90233 1.44475 8.68875 1.53475 8.50875 1.71475C8.32875 1.89475 8.23875 2.10833 8.23875 2.3555C8.23875 2.60267 8.32875 2.81625 8.50875 2.99625C8.68875 3.17625 8.90233 3.26625 9.1495 3.26625Z" fill="black"/>
</svg>
