<svg width="21" height="20" viewBox="0 0 21 20" fill="none" xmlns="http://www.w3.org/2000/svg">
<path d="M4 16.305L1.4545 18.8505C1.18517 19.1198 0.875417 19.1819 0.52525 19.0367C0.175083 18.8918 0 18.6327 0 18.2597V1.70925C0 1.24758 0.168917 0.847332 0.50675 0.508499C0.844417 0.169499 1.24325 0 1.70325 0H18.5957C19.0574 0 19.4577 0.169499 19.7965 0.508499C20.1355 0.847332 20.305 1.24758 20.305 1.70925V14.6017C20.305 15.0617 20.1355 15.4606 19.7965 15.7983C19.4577 16.1361 19.0574 16.305 18.5957 16.305H4ZM3.35 14.6017H18.5957V1.70925H1.70325V16.3985L3.35 14.6017ZM5.7285 9.13425C6.02733 9.13425 6.2775 9.03325 6.479 8.83125C6.68067 8.62908 6.7815 8.37858 6.7815 8.07975C6.7815 7.78092 6.6805 7.53075 6.4785 7.32925C6.27633 7.12758 6.02583 7.02675 5.727 7.02675C5.42817 7.02675 5.178 7.12775 4.9765 7.32975C4.77483 7.53192 4.674 7.78242 4.674 8.08125C4.674 8.38008 4.77508 8.63025 4.97725 8.83175C5.17925 9.03342 5.42967 9.13425 5.7285 9.13425ZM10.2253 9.13425C10.5241 9.13425 10.7743 9.03325 10.9757 8.83125C11.1774 8.62908 11.2783 8.37858 11.2783 8.07975C11.2783 7.78092 11.1773 7.53075 10.9753 7.32925C10.7731 7.12758 10.5226 7.02675 10.2238 7.02675C9.92492 7.02675 9.67475 7.12775 9.47325 7.32975C9.27158 7.53192 9.17075 7.78242 9.17075 8.08125C9.17075 8.38008 9.27175 8.63025 9.47375 8.83175C9.67592 9.03342 9.92642 9.13425 10.2253 9.13425ZM14.547 9.13425C14.8458 9.13425 15.096 9.03325 15.2975 8.83125C15.4992 8.62908 15.6 8.37858 15.6 8.07975C15.6 7.78092 15.4989 7.53075 15.2968 7.32925C15.0948 7.12758 14.8443 7.02675 14.5455 7.02675C14.2467 7.02675 13.9965 7.12775 13.795 7.32975C13.5933 7.53192 13.4925 7.78242 13.4925 8.08125C13.4925 8.38008 13.5935 8.63025 13.7955 8.83175C13.9977 9.03342 14.2482 9.13425 14.547 9.13425Z" fill="black"/>
</svg>
