<svg width="24" height="24" viewBox="0 0 24 24" fill="none" xmlns="http://www.w3.org/2000/svg">
<path d="M5.85059 18.1495L3.30509 20.695C3.03575 20.9643 2.726 21.0264 2.37584 20.8812C2.02567 20.7362 1.85059 20.4772 1.85059 20.1042V3.55373C1.85059 3.09207 2.0195 2.69181 2.35734 2.35298C2.695 2.01398 3.09384 1.84448 3.55384 1.84448H20.4463C20.908 1.84448 21.3083 2.01398 21.6471 2.35298C21.9861 2.69181 22.1556 3.09207 22.1556 3.55373V16.4462C22.1556 16.9062 21.9861 17.3051 21.6471 17.6427C21.3083 17.9806 20.908 18.1495 20.4463 18.1495H5.85059ZM5.20059 16.4462H20.4463V3.55373H3.55384V18.243L5.20059 16.4462ZM7.57909 10.9787C7.87792 10.9787 8.12809 10.8777 8.32959 10.6757C8.53125 10.4736 8.63209 10.2231 8.63209 9.92423C8.63209 9.6254 8.53109 9.37523 8.32909 9.17373C8.12692 8.97207 7.87642 8.87123 7.57759 8.87123C7.27875 8.87123 7.02859 8.97223 6.82709 9.17423C6.62542 9.3764 6.52459 9.6269 6.52459 9.92573C6.52459 10.2246 6.62567 10.4747 6.82784 10.6762C7.02984 10.8779 7.28025 10.9787 7.57909 10.9787ZM12.0758 10.9787C12.3747 10.9787 12.6248 10.8777 12.8263 10.6757C13.028 10.4736 13.1288 10.2231 13.1288 9.92423C13.1288 9.6254 13.0278 9.37523 12.8258 9.17373C12.6237 8.97207 12.3732 8.87123 12.0743 8.87123C11.7755 8.87123 11.5253 8.97223 11.3238 9.17423C11.1222 9.3764 11.0213 9.6269 11.0213 9.92573C11.0213 10.2246 11.1223 10.4747 11.3243 10.6762C11.5265 10.8779 11.777 10.9787 12.0758 10.9787ZM16.3976 10.9787C16.6964 10.9787 16.9466 10.8777 17.1481 10.6757C17.3498 10.4736 17.4506 10.2231 17.4506 9.92423C17.4506 9.6254 17.3495 9.37523 17.1473 9.17373C16.9453 8.97207 16.6949 8.87123 16.3961 8.87123C16.0973 8.87123 15.8471 8.97223 15.6456 9.17423C15.4439 9.3764 15.3431 9.6269 15.3431 9.92573C15.3431 10.2246 15.4441 10.4747 15.6461 10.6762C15.8483 10.8779 16.0988 10.9787 16.3976 10.9787Z" fill="black"/>
</svg>
