<svg width="16" height="16" viewBox="0 0 16 16" fill="none" xmlns="http://www.w3.org/2000/svg">
<path d="M7.25672 0.489876C7.53172 -0.163293 8.46832 -0.163292 8.74332 0.489878L10.3663 4.345C10.4823 4.62036 10.7445 4.8085 11.0454 4.83233L15.2582 5.166C15.9719 5.22253 16.2614 6.10252 15.7175 6.56274L12.5079 9.27896C12.2786 9.473 12.1784 9.77745 12.2485 10.0675L13.2291 14.1288C13.3952 14.8169 12.6375 15.3608 12.0264 14.9921L8.41965 12.8157C8.16202 12.6602 7.83802 12.6602 7.5804 12.8157L3.9736 14.9921C3.3625 15.3608 2.60477 14.8169 2.77091 14.1288L3.75155 10.0675C3.82159 9.77745 3.72147 9.473 3.49221 9.27896L0.28245 6.56274C-0.261375 6.10252 0.0280544 5.22253 0.741835 5.166L4.9547 4.83233C5.25561 4.8085 5.51774 4.62036 5.63367 4.345L7.25672 0.489876Z" fill="black"/>
</svg>
