<svg width="32" height="32" viewBox="0 0 32 32" fill="none" xmlns="http://www.w3.org/2000/svg">
<path d="M7.40479 29.5327C6.79146 29.5327 6.25968 29.3075 5.80946 28.857C5.35901 28.4068 5.13379 27.875 5.13379 27.2617V10.1674C5.13379 9.5518 5.35901 9.01813 5.80946 8.56635C6.25968 8.11435 6.79146 7.88835 7.40479 7.88835H10.8641V7.55502C10.8748 6.12857 11.3763 4.92268 12.3688 3.93735C13.361 2.95202 14.5709 2.45935 15.9985 2.45935C17.426 2.45935 18.6363 2.95202 19.6295 3.93735C20.6228 4.92268 21.1248 6.12857 21.1355 7.55502V7.88835H24.5948C25.2103 7.88835 25.744 8.11435 26.1958 8.56635C26.6478 9.01813 26.8738 9.5518 26.8738 10.1674V27.2617C26.8738 27.875 26.6478 28.4068 26.1958 28.857C25.744 29.3075 25.2103 29.5327 24.5948 29.5327H7.40479ZM7.40479 27.2617H24.5948V10.1674H21.1355V13.032C21.1355 13.3525 21.0257 13.6218 20.8061 13.84C20.5868 14.0582 20.316 14.1674 19.9938 14.1674C19.6718 14.1674 19.403 14.0582 19.1875 13.84C18.9719 13.6218 18.8641 13.3525 18.8641 13.032V10.1674H13.1355V13.032C13.1355 13.3525 13.0257 13.6218 12.8061 13.84C12.5868 14.0582 12.316 14.1674 11.9938 14.1674C11.6718 14.1674 11.403 14.0582 11.1875 13.84C10.9719 13.6218 10.8641 13.3525 10.8641 13.032V10.1674H7.40479V27.2617ZM13.1431 7.88835H18.8565V7.55502C18.8458 6.76368 18.5659 6.09646 18.0168 5.55335C17.4677 5.01002 16.7951 4.73835 15.9991 4.73835C15.2029 4.73835 14.5306 5.01002 13.9821 5.55335C13.4335 6.09646 13.1538 6.76368 13.1431 7.55502V7.88835Z" fill="black" stroke="white"/>
</svg>
